<svg width="17" height="16" viewBox="0 0 17 16" fill="none" xmlns="http://www.w3.org/2000/svg">
<g clip-path="url(#clip0_2423_81951)">
<path d="M7.1457 1.71586L1.18042 4.18418C0.848695 4.32146 0.852132 4.79274 1.18594 4.92505L7.17608 7.30049C7.70239 7.50922 8.28851 7.50922 8.81482 7.30049L14.8051 4.92496C15.1388 4.79274 15.1424 4.32155 14.8105 4.18427L8.84539 1.71577C8.30117 1.49058 7.68982 1.49058 7.14561 1.71577" fill="#FCB400"/>
<path d="M8.52734 8.60019V14.5344C8.52734 14.8166 8.81195 15.01 9.07431 14.906L15.7492 12.3151C15.8236 12.2856 15.8875 12.2344 15.9325 12.1681C15.9775 12.1019 16.0015 12.0237 16.0015 11.9436V6.00942C16.0015 5.72716 15.7169 5.53389 15.4545 5.6379L8.77967 8.22876C8.70523 8.25829 8.64139 8.30949 8.5964 8.37573C8.55141 8.44198 8.52735 8.5202 8.52734 8.60028" fill="#18BFFF"/>
<path d="M6.96715 8.90474L4.9862 9.86121L4.78506 9.95843L0.603401 11.9621C0.338418 12.09 0 11.8968 0 11.6023V6.03262C0 5.92608 0.0546244 5.83411 0.127879 5.76492C0.157932 5.735 0.192026 5.70943 0.229169 5.68895C0.329013 5.62899 0.471543 5.61299 0.592729 5.66092L6.93387 8.17346C7.25619 8.30134 7.28151 8.75299 6.96715 8.90483" fill="#F82B60"/>
<path d="M6.96622 8.90474L4.98527 9.86121L0.126953 5.76483C0.157011 5.73494 0.191106 5.7094 0.228243 5.68895C0.328087 5.62899 0.470617 5.61299 0.591803 5.66092L6.93294 8.17346C7.25526 8.30134 7.28058 8.75299 6.96622 8.90483" fill="black" fill-opacity="0.25"/>
</g>
<defs>
<clipPath id="clip0_2423_81951">
<rect width="16.0015" height="16" fill="white"/>
</clipPath>
</defs>
</svg>
