<svg width="16" height="16" viewBox="0 0 16 16" fill="none" xmlns="http://www.w3.org/2000/svg">
<g clip-path="url(#clip0_2423_81947)">
<path d="M11.4793 4.06625C11.4793 5.99618 9.92169 7.56218 8.00062 7.56218C6.07837 7.56218 4.52074 5.99739 4.52074 4.06625C4.52074 2.13512 6.07837 0.570312 8.00062 0.570312C9.92169 0.570312 11.4793 2.13512 11.4793 4.06625ZM3.47988 8.43559C1.55887 8.43559 0 10.0004 0 11.9303C0 13.8602 1.55763 15.4263 3.47988 15.4263C5.40219 15.4263 6.95982 13.8615 6.95982 11.9303C6.95982 10.0004 5.40219 8.43559 3.47988 8.43559ZM12.5201 8.43559C10.5979 8.43559 9.04024 10.0004 9.04024 11.9315C9.04024 13.8626 10.5979 15.4275 12.5201 15.4275C14.4412 15.4275 16 13.8626 16 11.9315C16 10.0004 14.4424 8.43559 12.5201 8.43559Z" fill="#F06A6A"/>
</g>
<defs>
<clipPath id="clip0_2423_81947">
<rect width="16" height="16" fill="white"/>
</clipPath>
</defs>
</svg>
