<svg width="16" height="16" viewBox="0 0 16 16" fill="none" xmlns="http://www.w3.org/2000/svg">
<g clip-path="url(#clip0_2423_81895)">
<rect width="16" height="16" rx="4" fill="#0071F7"/>
<path d="M12.6911 9.90562C12.8131 10.0765 12.7887 10.2962 12.6423 10.4182C12.4714 10.5403 12.2273 10.5159 12.1052 10.3694L11.2508 9.27094L10.4209 10.345C10.2988 10.5159 10.0547 10.5159 9.88384 10.3938C9.71296 10.2718 9.68855 10.0521 9.8106 9.88121L10.787 8.61185L9.8106 7.34249C9.68855 7.17161 9.73737 6.9275 9.88384 6.80545C10.0547 6.6834 10.2988 6.73222 10.4209 6.87868L11.2508 7.97717L12.1052 6.9275C12.2273 6.75663 12.447 6.73222 12.6423 6.85427C12.8131 6.97633 12.8131 7.22043 12.6911 7.39131L11.7391 8.63626L12.6911 9.90562ZM8.24831 9.75915C7.61364 9.75915 7.10101 9.27094 7.10101 8.63626C7.10101 8.02599 7.61364 7.51336 8.24831 7.51336C8.883 7.51336 9.39562 8.02599 9.39562 8.63626C9.37121 9.27094 8.85858 9.75915 8.24831 9.75915ZM4.87963 9.75915C4.24495 9.75915 3.73232 9.27094 3.73232 8.63626C3.73232 8.02599 4.24495 7.51336 4.87963 7.51336C5.51431 7.51336 6.02694 8.02599 6.02694 8.63626C6.02694 9.27094 5.51431 9.75915 4.87963 9.75915ZM8.24831 6.78104C7.5404 6.78104 6.90572 7.17161 6.58838 7.75747C6.27104 7.17161 5.63636 6.78104 4.90404 6.78104C4.46465 6.78104 4.07407 6.9275 3.75673 7.1472V5.58491C3.75673 5.38963 3.58586 5.21875 3.39057 5.21875C3.17088 5.21875 3 5.38963 3 5.58491V8.66067C3.02441 9.68592 3.85438 10.4915 4.87963 10.4915C5.61195 10.4915 6.24663 10.0765 6.56397 9.49064C6.88131 10.0765 7.51599 10.4915 8.2239 10.4915C9.27357 10.4915 10.1279 9.66151 10.1279 8.61185C10.1524 7.61101 9.29798 6.78104 8.24831 6.78104Z" fill="white"/>
</g>
<defs>
<clipPath id="clip0_2423_81895">
<rect width="16" height="16" fill="white"/>
</clipPath>
</defs>
</svg>
