<svg width="16" height="16" viewBox="0 0 16 16" fill="none" xmlns="http://www.w3.org/2000/svg">
<g clip-path="url(#clip0_2423_81933)">
<path d="M0.580145 12.1324C0.414665 12.4023 0.228819 12.7154 0.0709765 12.9649C0.00306178 13.0797 -0.0171163 13.2165 0.0147792 13.346C0.0466747 13.4754 0.128098 13.5873 0.241548 13.6573L3.55114 15.694C3.60865 15.7295 3.67266 15.7532 3.73942 15.7637C3.80619 15.7742 3.87438 15.7713 3.94002 15.7552C4.00566 15.7391 4.06744 15.7101 4.12175 15.6699C4.17606 15.6296 4.22181 15.579 4.25634 15.5209C4.38872 15.2994 4.55929 15.0117 4.74514 14.7037C6.05625 12.5397 7.37499 12.8045 9.75281 13.9399L13.0344 15.5005C13.0959 15.5298 13.1627 15.5464 13.2307 15.5494C13.2988 15.5524 13.3668 15.5418 13.4306 15.518C13.4945 15.4943 13.553 15.458 13.6025 15.4112C13.6521 15.3645 13.6918 15.3083 13.7192 15.2459L15.2951 11.6818C15.3486 11.5594 15.3519 11.421 15.3043 11.2962C15.2567 11.1714 15.162 11.0704 15.0405 11.0148C14.3481 10.6889 12.9708 10.0398 11.7309 9.44149C7.27062 7.275 3.47986 7.41502 0.580145 12.1324Z" fill="url(#paint0_linear_2423_81933)"/>
<path d="M15.4197 4.04688C15.5852 3.77702 15.771 3.46389 15.9288 3.2144C15.9968 3.09963 16.0169 2.9628 15.985 2.83332C15.9531 2.70384 15.8717 2.59203 15.7583 2.52194L12.4487 0.485294C12.3907 0.446269 12.3254 0.419585 12.2567 0.406901C12.188 0.394217 12.1174 0.395804 12.0494 0.411565C11.9813 0.427325 11.9172 0.456921 11.8611 0.498511C11.805 0.540101 11.758 0.592796 11.7231 0.653317C11.5907 0.874802 11.4202 1.16248 11.2343 1.47052C9.9232 3.63446 8.60445 3.36969 6.22664 2.23426L2.95523 0.681321C2.89372 0.652041 2.82695 0.635405 2.75888 0.632397C2.69082 0.629389 2.62285 0.640071 2.55899 0.663811C2.49513 0.68755 2.43668 0.723864 2.38711 0.770601C2.33754 0.817338 2.29785 0.873549 2.2704 0.935902L0.694525 4.50003C0.64101 4.62239 0.637707 4.76086 0.685327 4.88563C0.732948 5.01039 0.82768 5.11145 0.949109 5.16703C1.64158 5.4929 3.01888 6.14208 4.2587 6.74034C8.7292 8.90428 12.52 8.75917 15.4197 4.04688Z" fill="url(#paint1_linear_2423_81933)"/>
</g>
<defs>
<linearGradient id="paint0_linear_2423_81933" x1="15.206" y1="16.7454" x2="5.19327" y2="10.9918" gradientUnits="userSpaceOnUse">
<stop offset="0.18" stop-color="#0052CC"/>
<stop offset="1" stop-color="#2684FF"/>
</linearGradient>
<linearGradient id="paint1_linear_2423_81933" x1="0.793813" y1="-0.568671" x2="10.8091" y2="5.18751" gradientUnits="userSpaceOnUse">
<stop offset="0.18" stop-color="#0052CC"/>
<stop offset="1" stop-color="#2684FF"/>
</linearGradient>
<clipPath id="clip0_2423_81933">
<rect width="16" height="16" fill="white"/>
</clipPath>
</defs>
</svg>
