<svg width="16" height="16" viewBox="0 0 16 16" fill="none" xmlns="http://www.w3.org/2000/svg">
<path d="M5.50056 15.4992C6.88032 15.4992 8.00013 14.3793 8.00013 12.9996V10.5H5.50056C4.12079 10.5 3.00098 11.6198 3.00098 12.9996C3.00098 14.3793 4.12079 15.4992 5.50056 15.4992Z" fill="#0ACF83"/>
<path d="M3.00098 7.99958C3.00098 6.61981 4.12079 5.5 5.50056 5.5H8.00013V10.4992H5.50056C4.12079 10.4992 3.00098 9.37935 3.00098 7.99958Z" fill="#A259FF"/>
<path d="M3.00098 2.99958C3.00098 1.61981 4.12079 0.5 5.50056 0.5H8.00013V5.49916H5.50056C4.12079 5.49916 3.00098 4.37935 3.00098 2.99958Z" fill="#F24E1E"/>
<path d="M7.99976 0.5H10.4993C11.8791 0.5 12.9989 1.61981 12.9989 2.99958C12.9989 4.37935 11.8791 5.49916 10.4993 5.49916H7.99976V0.5Z" fill="#FF7262"/>
<path d="M12.9989 7.99958C12.9989 9.37935 11.8791 10.4992 10.4993 10.4992C9.11957 10.4992 7.99976 9.37935 7.99976 7.99958C7.99976 6.61981 9.11957 5.5 10.4993 5.5C11.8791 5.5 12.9989 6.61981 12.9989 7.99958Z" fill="#1ABCFE"/>
</svg>
