<svg width="17" height="16" viewBox="0 0 17 16" fill="none" xmlns="http://www.w3.org/2000/svg">
<g clip-path="url(#clip0_2423_81971)">
<path d="M16.0015 7.11032H11.3228L15.3748 4.77095L14.4849 3.22928L10.433 5.56865L12.7719 1.51705L11.2302 0.626696L8.89133 4.67829V0H7.11158V4.67873L4.77184 0.626696L3.23065 1.5166L5.56995 5.5682L1.51803 3.22928L0.628144 4.7705L4.68007 7.10987H0.00146484V8.8897H4.67962L0.628144 11.2291L1.51803 12.7707L5.5695 10.4318L3.23021 14.4834L4.77184 15.3733L7.11114 11.3213V16H8.89091V11.3217L11.2298 15.3733L12.7714 14.4834L10.4321 10.4314L14.484 12.7707L15.3739 11.2291L11.3224 8.89012H16.0005V7.11032H16.0015ZM8.00146 10.4206C6.65948 10.4206 5.57174 9.33288 5.57174 7.99083C5.57174 6.6488 6.65948 5.56104 8.00146 5.56104C9.34345 5.56104 10.4312 6.6488 10.4312 7.99083C10.4312 9.33288 9.34345 10.4206 8.00146 10.4206Z" fill="#625DF5"/>
</g>
<defs>
<clipPath id="clip0_2423_81971">
<rect width="16" height="16" fill="white" transform="translate(0.00146484)"/>
</clipPath>
</defs>
</svg>
