<svg width="16" height="16" viewBox="0 0 16 16" fill="none" xmlns="http://www.w3.org/2000/svg">
<path d="M5.3031 6.93164H7.22051C6.74165 6.6321 6.56251 6.21231 6.32194 5.43398L5.60252 2.76768C5.27352 1.56956 5.00353 1 3.68511 1H0.930405V1.71933H1.32068C2.1284 1.71933 2.21925 2.01886 2.45981 2.91746L3.08838 5.25472C3.41738 6.39385 3.92794 6.93164 5.30536 6.93164H5.3031ZM9.73706 6.93164H11.6545C13.0319 6.93164 13.5106 6.39157 13.842 5.25472L14.4706 2.91746C14.711 2.01886 14.829 1.71933 15.6097 1.71933H16V1H13.2747C11.9267 1 11.6567 1.54006 11.3572 2.76768L10.6379 5.43398C10.3973 6.24181 10.2158 6.6321 9.73706 6.93164ZM7.22051 9.44815H9.73706V6.93164H7.22051V9.44815ZM0.930405 15.3798H3.68511C5.00353 15.3798 5.27352 14.8103 5.60252 13.6121L6.32194 10.9459C6.56251 10.1674 6.74165 9.74772 7.22051 9.44815H5.3031C3.92567 9.44815 3.41512 9.98828 3.08612 11.1251L2.45754 13.4624C2.21698 14.361 2.1284 14.6604 1.31842 14.6604H0.928142V15.3798H0.930405ZM13.2702 15.3798H15.9955V14.6604H15.6052C14.8268 14.6604 14.7065 14.361 14.4661 13.4624L13.8375 11.1251C13.5084 9.98602 13.0296 9.44815 11.6499 9.44815H9.73706C10.2158 9.74772 10.3905 10.138 10.6311 10.9459L11.3504 13.6121C11.6499 14.8397 11.9199 15.3798 13.2679 15.3798H13.2702Z" fill="black"/>
</svg>
