<svg xmlns="http://www.w3.org/2000/svg" width="16" height="16" viewBox="0 0 16 16" fill="none"><path fill="#fff" stroke="#fff" stroke-width=".86" d="M2.84 2.19a1.2 1.2 0 0 0-.87.42c-.2.24-.26.54-.26.8v7.14c0 .45.18.81.5 1.22l1.6 2c.16.2.34.35.6.44.23.08.48.09.74.08l7.88-.46c.39-.03.73-.13.97-.39.23-.26.29-.59.29-.88V4.53a.83.83 0 0 0-.22-.59c-.1-.11-.25-.21-.38-.31l-.06-.04-2.17-1.46c-.27-.2-.51-.34-.82-.4a3.5 3.5 0 0 0-1.02-.02l-6.78.48Z"/><path fill="#000" fill-rule="evenodd" d="m9.65 2.13-6.77.48c-.55.05-.74.4-.74.8v7.14c0 .32.12.59.4.96l1.6 1.98c.26.32.5.4 1 .37L13 13.4c.67-.04.86-.34.86-.84V4.53c0-.26-.1-.33-.42-.55l-.06-.04-2.16-1.46c-.52-.37-.74-.41-1.57-.35ZM5.31 4.4c-.64.04-.79.05-1.15-.23l-.93-.7c-.1-.1-.05-.22.2-.24l6.5-.46c.55-.04.84.14 1.05.3l1.12.78c.05.02.17.16.02.16L5.4 4.4H5.3Zm-.75 8.09V5.68c0-.3.1-.44.38-.46l7.73-.43c.26-.03.38.13.38.43v6.77c0 .3-.05.54-.47.57l-7.4.4c-.43.03-.62-.1-.62-.47Zm7.3-6.45c.05.2 0 .41-.21.44l-.36.07v5.02c-.3.16-.6.26-.83.26-.38 0-.48-.12-.76-.46L7.37 7.85v3.4l.74.16s0 .42-.6.42l-1.64.09c-.05-.1 0-.32.17-.37l.43-.11v-4.5l-.6-.05c-.05-.2.07-.5.4-.53l1.77-.11 2.42 3.56V6.66l-.62-.07c-.05-.25.14-.43.38-.46l1.64-.09Z" clip-rule="evenodd"/></svg>