<svg width="16" height="16" fill="none" xmlns="http://www.w3.org/2000/svg"><path fill-rule="evenodd" clip-rule="evenodd" d="M14.39 6.933c-.14 1.873-1.628 3.567-3.542 3.644V9.16c0-1.298-.924-2.42-2.198-2.667l-4.745-.922v-3.2c0-.862.786-1.51 1.631-1.345l4.88.948c2.7.588 4.145 2.657 3.974 4.96Zm-8.802 4.475-2.808-.546a.655.655 0 0 0-.78.643v1.943a1.013 1.013 0 0 0 .82.995l2.807.545a.656.656 0 0 0 .78-.643v-1.943a1.013 1.013 0 0 0-.82-.994Zm2.837-3.863-4.282-.831a.998.998 0 0 0-1.19.98v2.11c.01.003.022.004.032.006l2.808.545a2.088 2.088 0 0 1 1.687 2.047v.44l1.087.212a.998.998 0 0 0 1.189-.98V9.16c0-.787-.559-1.464-1.331-1.614v-.002Z" fill="#000"/></svg>