<svg width="16" height="16" viewBox="0 0 16 16" fill="none" xmlns="http://www.w3.org/2000/svg">
<path fill-rule="evenodd" clip-rule="evenodd" d="M6.65775 3.71984C7.17395 3.18247 7.89241 2.8497 8.68612 2.8497C9.7444 2.8497 10.6616 3.43764 11.1554 4.31365C11.5938 4.11768 12.0686 4.01651 12.5488 4.01675C14.4537 4.01675 16 5.57477 16 7.49731C16 9.41985 14.4537 10.9779 12.5488 10.9779C12.316 10.9779 12.0891 10.9545 11.8668 10.9103C11.4347 11.6805 10.6087 12.2037 9.66797 12.2037C9.28498 12.2045 8.90689 12.1176 8.56265 11.9497C8.12464 12.9786 7.10458 13.7018 5.91695 13.7018C4.67642 13.7018 3.62402 12.9198 3.21834 11.8204C3.03779 11.8585 2.85375 11.8776 2.66921 11.8775C1.1935 11.8775 0 10.6664 0 9.17892C0 8.17943 0.53737 7.30929 1.33461 6.83894C1.16547 6.44932 1.07841 6.02903 1.07886 5.60428C1.07886 3.88752 2.47226 2.5 4.18902 2.5C5.19439 2.5 6.09392 2.97917 6.65834 3.7229" fill="#00A1E0"/>
</svg>
