<svg width="16" height="16" viewBox="0 0 16 16" fill="none" xmlns="http://www.w3.org/2000/svg">
<g clip-path="url(#clip0_2423_81916)">
<g clip-path="url(#clip1_2423_81916)">
<path d="M11.1603 6.07812H15.2931C15.6836 6.07812 16.0001 6.39465 16.0001 6.7851V10.5496C16.0001 11.9846 14.8368 13.1479 13.4018 13.1479H13.3895C11.9545 13.1481 10.791 11.985 10.7908 10.55C10.7908 10.5498 10.7908 10.5497 10.7908 10.5496V6.44762C10.7908 6.24355 10.9562 6.07812 11.1603 6.07812Z" fill="#5059C9"/>
<path d="M13.9537 5.34105C14.8785 5.34105 15.6281 4.59138 15.6281 3.66662C15.6281 2.74186 14.8785 1.99219 13.9537 1.99219C13.029 1.99219 12.2793 2.74186 12.2793 3.66662C12.2793 4.59138 13.029 5.34105 13.9537 5.34105Z" fill="#5059C9"/>
<path d="M8.74454 5.33725C10.0803 5.33725 11.1631 4.2544 11.1631 2.91863C11.1631 1.58286 10.0803 0.5 8.74454 0.5C7.40878 0.5 6.32593 1.58286 6.32593 2.91863C6.32593 4.2544 7.40878 5.33725 8.74454 5.33725Z" fill="#7B83EB"/>
<path d="M11.9688 6.07812H5.14682C4.76102 6.08767 4.45583 6.40785 4.46478 6.79367V11.0873C4.41091 13.4026 6.24262 15.3239 8.55781 15.3805C10.873 15.3239 12.7047 13.4026 12.6508 11.0873V6.79367C12.6598 6.40785 12.3546 6.08767 11.9688 6.07812Z" fill="#7B83EB"/>
<path opacity="0.1" d="M8.93065 6.07812V12.0949C8.9288 12.3708 8.7616 12.6187 8.50646 12.7238C8.42523 12.7581 8.33792 12.7758 8.24972 12.7759H4.79297C4.7446 12.6531 4.69995 12.5303 4.66274 12.4038C4.53249 11.9768 4.46603 11.5329 4.46552 11.0865V6.79255C4.45658 6.40735 4.76127 6.08767 5.14645 6.07812H8.93065Z" fill="black"/>
<path opacity="0.2" d="M8.55856 6.07812V12.467C8.55854 12.5552 8.54083 12.6425 8.50646 12.7238C8.40141 12.9789 8.15354 13.1461 7.87763 13.1479H4.96786C4.9046 13.0252 4.84507 12.9024 4.79297 12.7759C4.74087 12.6493 4.69995 12.5303 4.66274 12.4038C4.53249 11.9768 4.46603 11.5329 4.46552 11.0865V6.79255C4.45658 6.40735 4.76127 6.08767 5.14645 6.07812H8.55856Z" fill="black"/>
<path opacity="0.2" d="M8.55855 6.07812V11.7228C8.55571 12.0977 8.25251 12.4009 7.87762 12.4038H4.66274C4.53249 11.9768 4.46603 11.5329 4.46552 11.0865V6.79255C4.45658 6.40735 4.76127 6.08767 5.14645 6.07812H8.55855Z" fill="black"/>
<path opacity="0.2" d="M8.18645 6.07812V11.7228C8.18362 12.0977 7.88041 12.4009 7.50552 12.4038H4.66274C4.53249 11.9768 4.46603 11.5329 4.46552 11.0865V6.79255C4.45658 6.40735 4.76127 6.08767 5.14645 6.07812H8.18645Z" fill="black"/>
<path opacity="0.1" d="M8.93026 4.15749V5.32959C8.867 5.33331 8.80747 5.33704 8.74421 5.33704C8.68095 5.33704 8.62142 5.33332 8.55816 5.32959C8.43256 5.32126 8.308 5.30133 8.18607 5.27006C7.43258 5.09162 6.81007 4.56318 6.51165 3.84866C6.4603 3.72866 6.42044 3.60407 6.39258 3.47656H8.24932C8.6248 3.47798 8.92883 3.78201 8.93026 4.15749Z" fill="black"/>
<path opacity="0.2" d="M8.55823 4.53249V5.3325C8.43263 5.32416 8.30807 5.30424 8.18614 5.27297C7.43265 5.09453 6.81014 4.56609 6.51172 3.85156H7.8773C8.25277 3.85298 8.5568 4.15702 8.55823 4.53249Z" fill="black"/>
<path opacity="0.2" d="M8.55823 4.53249V5.3325C8.43263 5.32416 8.30807 5.30424 8.18614 5.27297C7.43265 5.09453 6.81014 4.56609 6.51172 3.85156H7.8773C8.25277 3.85298 8.5568 4.15702 8.55823 4.53249Z" fill="black"/>
<path opacity="0.2" d="M8.18614 4.5325V5.27297C7.43265 5.09453 6.81014 4.56609 6.51172 3.85156H7.50521C7.88069 3.85299 8.18471 4.15702 8.18614 4.5325Z" fill="black"/>
<path d="M0.682043 3.85156H7.504C7.88068 3.85156 8.18604 4.15693 8.18604 4.53361V11.3556C8.18604 11.7323 7.88067 12.0377 7.504 12.0377H0.682043C0.305358 12.0377 0 11.7323 0 11.3556V4.53361C0 4.15693 0.305365 3.85156 0.682043 3.85156Z" fill="url(#paint0_linear_2423_81916)"/>
<path d="M5.88781 6.44694H4.52408V10.1605H3.65525V6.44694H2.29785V5.72656H5.88781V6.44694Z" fill="white"/>
</g>
</g>
<defs>
<linearGradient id="paint0_linear_2423_81916" x1="1.42208" y1="3.31862" x2="6.76403" y2="12.5706" gradientUnits="userSpaceOnUse">
<stop stop-color="#5A62C3"/>
<stop offset="0.5" stop-color="#4D55BD"/>
<stop offset="1" stop-color="#3940AB"/>
</linearGradient>
<clipPath id="clip0_2423_81916">
<rect width="16" height="16" fill="white"/>
</clipPath>
<clipPath id="clip1_2423_81916">
<rect width="16" height="14.8838" fill="white" transform="translate(0 0.5)"/>
</clipPath>
</defs>
</svg>
