<svg width="16" height="16" viewBox="0 0 16 16" fill="none" xmlns="http://www.w3.org/2000/svg">
<g clip-path="url(#clip0_2423_81943)">
<path fill-rule="evenodd" clip-rule="evenodd" d="M14.1006 0H1.90198C0.852562 0 0.00144521 0.850517 1.53326e-05 1.90061V14.0891C-0.00201396 14.5952 0.197466 15.0813 0.554372 15.4399C0.911278 15.7984 1.39622 16 1.90198 16H14.1006C14.6059 15.9993 15.0902 15.7975 15.4465 15.4389C15.8029 15.0804 16.002 14.5948 16 14.0891V1.90061C15.9986 0.851518 15.149 0.00141292 14.1006 0ZM6.90036 11.5242C6.89968 11.6934 6.8317 11.8553 6.71145 11.9742C6.5912 12.093 6.42858 12.1591 6.25954 12.1578H3.59374C3.24507 12.1563 2.96317 11.8731 2.96317 11.5242V3.58576C2.96317 3.23687 3.24507 2.95364 3.59374 2.95223H6.25954C6.60862 2.95363 6.89126 3.23646 6.89267 3.58576L6.90036 11.5242ZM13.0522 7.87945C13.0522 8.04881 12.9845 8.21113 12.8641 8.33017C12.7437 8.4492 12.5806 8.51504 12.4114 8.51303H9.74559C9.3965 8.51158 9.11386 8.22876 9.11246 7.87945V3.58576C9.11386 3.23646 9.3965 2.95363 9.74559 2.95223H12.4114C12.7601 2.95364 13.042 3.23687 13.042 3.58576L13.0522 7.87945Z" fill="url(#paint0_linear_2423_81943)"/>
</g>
<defs>
<linearGradient id="paint0_linear_2423_81943" x1="8.00769" y1="16" x2="8.00769" y2="0" gradientUnits="userSpaceOnUse">
<stop stop-color="#0052CC"/>
<stop offset="1" stop-color="#2684FF"/>
</linearGradient>
<clipPath id="clip0_2423_81943">
<rect width="16" height="16" fill="white"/>
</clipPath>
</defs>
</svg>
