<svg xmlns="http://www.w3.org/2000/svg" viewBox="0 0 1024 450"><path fill="#089949" d="M458.1 353c-7.7 0-15.5-1.6-23-4.9l-160-71.3c-28.6-12.7-41.5-46.4-28.8-75l71.3-160C330.3 13.2 364 .3 392.6 13l160 71.3c28.6 12.7 41.5 46.4 28.8 75l-71.3 160c-9.5 21.2-30.3 33.7-52 33.7zm-9.7-34.9c12.1 5.4 26.3-.1 31.7-12.1l71.3-160c5.4-12.1-.1-26.3-12.1-31.7L379.2 43c-12.1-5.4-26.3.1-31.7 12.1l-71.3 160c-5.4 12.1.1 26.3 12.1 31.7l160.1 71.3z"/><path fill="#F9B21D" d="M960 353.1H784.8c-31.3 0-56.8-25.5-56.8-56.8V121.1c0-31.3 25.5-56.8 56.8-56.8H960c31.3 0 56.8 25.5 56.8 56.8v175.2c0 31.3-25.5 56.8-56.8 56.8zm-175.2-256c-13.2 0-24 10.8-24 24v175.2c0 13.2 10.8 24 24 24H960c13.2 0 24-10.8 24-24V121.1c0-13.2-10.8-24-24-24H784.8z"/><path fill="#E42527" d="M303.9 153.2 280.3 206c-.3.6-.6 1.1-.9 1.6l9.2 56.8c2.1 13.1-6.8 25.4-19.8 27.5l-173 28c-6.3 1-12.7-.5-17.9-4.2-5.2-3.7-8.6-9.3-9.6-15.6l-28-173c-1-6.3.5-12.7 4.2-17.9 3.7-5.2 9.3-8.6 15.6-9.6l173-28c1.3-.2 2.6-.3 3.8-.3 11.5 0 21.8 8.4 23.7 20.2l9.3 57.2L294.3 94l-1.3-7.7c-5-30.9-34.2-52-65.1-47l-173 28C40 69.6 26.8 77.7 18 90c-8.9 12.3-12.4 27.3-10 42.3l28 173c2.4 15 10.5 28.1 22.8 37C68.5 349.4 80 353 91.9 353c3 0 6.1-.2 9.2-.7l173-28c30.9-5 52-34.2 47-65.1l-17.2-106z"/><g fill="#226DB4"><path d="m511.4 235.8 25.4-56.9-7.2-52.9c-.9-6.3.8-12.6 4.7-17.7 3.9-5.1 9.5-8.4 15.9-9.2l173.6-23.6c1.1-.1 2.2-.2 3.3-.2 5.2 0 10.2 1.7 14.5 4.9.8.6 1.5 1.3 2.2 1.9 7.7-8.1 17.8-13.9 29.1-16.4-3.2-4.4-7-8.3-11.5-11.7-12.1-9.2-27-13.1-42-11.1L545.6 66.5c-15 2-28.4 9.8-37.5 21.9-9.2 12.1-13.1 27-11.1 42l14.4 105.4zM806.8 265.1 784 97.1c-12.8.4-23.1 11-23.1 23.9v49.3l13.5 99.2c.9 6.3-.8 12.6-4.7 17.7s-9.5 8.4-15.9 9.2L580.2 320c-6.3.9-12.6-.8-17.7-4.7-5.1-3.9-8.4-9.5-9.2-15.9l-8-58.9-25.4 56.9.9 6.4c2 15 9.8 28.4 21.9 37.5 10 7.6 21.9 11.6 34.3 11.6 2.6 0 5.2-.2 7.8-.5L758.2 329c15-2 28.4-9.8 37.5-21.9 9.2-12.1 13.1-27 11.1-42z"/></g><path d="m317 436.2 24.8-36.6h-20.4c-1.1 0-2-.9-2-2v-4.9c0-1.1.9-2 2-2h33.5c1.1 0 2 .9 2 2v1.9c0 .4-.1.8-.3 1.1l-24.3 36.6h21.8c1.1 0 2 .9 2 2v4.9c0 1.1-.9 2-2 2h-35.4c-1.1 0-2-.9-2-2v-1.8c-.1-.5.1-.9.3-1.2zM421.4 415.6c0-15 11-25.8 26-25.8 15.5 0 26 10.6 26 25.9 0 15.5-10.7 26.2-26.2 26.2-15.6 0-25.8-10.7-25.8-26.3zm40.1.2c0-9.1-4.4-16.9-14.3-16.9-10 0-13.8 8.1-13.8 17.3 0 8.7 4.7 16.7 14.3 16.7 9.9-.1 13.8-8.6 13.8-17.1zM544.5 390.6h7.4c1.1 0 2 .9 2 2v18.6h21v-18.6c0-1.1.9-2 2-2h7.4c1.1 0 2 .9 2 2v46.5c0 1.1-.9 2-2 2H577c-1.1 0-2-.9-2-2v-18.8h-21v18.8c0 1.1-.9 2-2 2h-7.4c-1.1 0-2-.9-2-2v-46.5c-.1-1.1.8-2 1.9-2zM655.4 415.6c0-15 11-25.8 26-25.8 15.5 0 26 10.6 26 25.9 0 15.5-10.7 26.2-26.2 26.2-15.6 0-25.8-10.7-25.8-26.3zm40 .2c0-9.1-4.4-16.9-14.3-16.9-10 0-13.8 8.1-13.8 17.3 0 8.7 4.7 16.7 14.3 16.7 9.9-.1 13.8-8.6 13.8-17.1z"/></svg>
